<svg aria-hidden="true" style="position: absolute; width: 0; height: 0; overflow: hidden;" version="1.1" xmlns="http://www.w3.org/2000/svg" xmlns:xlink="http://www.w3.org/1999/xlink">
<defs>
<symbol id="facebook" viewBox="0 0 32 32">
<path d="M18 11v-4c0-1.104 0.896-2 2-2h2v-5h-4c-3.314 0-6 2.686-6 6v5h-4v5h4v16h6v-16h4l2-5h-6z"></path>
</symbol>
<symbol id="twitter" viewBox="0 0 32 32">
<path d="M32 6.078c-1.19 0.522-2.458 0.868-3.78 1.036 1.36-0.812 2.398-2.088 2.886-3.626-1.268 0.756-2.668 1.29-4.16 1.588-1.204-1.282-2.92-2.076-4.792-2.076-3.632 0-6.556 2.948-6.556 6.562 0 0.52 0.044 1.020 0.152 1.496-5.454-0.266-10.28-2.88-13.522-6.862-0.566 0.982-0.898 2.106-0.898 3.316 0 2.272 1.17 4.286 2.914 5.452-1.054-0.020-2.088-0.326-2.964-0.808 0 0.020 0 0.046 0 0.072 0 3.188 2.274 5.836 5.256 6.446-0.534 0.146-1.116 0.216-1.72 0.216-0.42 0-0.844-0.024-1.242-0.112 0.85 2.598 3.262 4.508 6.13 4.57-2.232 1.746-5.066 2.798-8.134 2.798-0.538 0-1.054-0.024-1.57-0.090 2.906 1.874 6.35 2.944 10.064 2.944 12.072 0 18.672-10 18.672-18.668 0-0.29-0.010-0.57-0.024-0.848 1.302-0.924 2.396-2.078 3.288-3.406z"></path>
</symbol>
<symbol id="google-plus" viewBox="0 0 32 32">
<path d="M29.097 12h-2.916v2.903h-2.903v2.916h2.903v2.903h2.916v-2.903h2.903v-2.916h-2.903z"></path>
<path d="M10 26c5.771 0 9.604-4.051 9.604-9.768 0-0.655-0.068-1.16-0.163-1.664h-9.44v3.437h5.676c-0.232 1.46-1.719 4.311-5.676 4.311-3.409 0-6.193-2.824-6.193-6.316s2.783-6.317 6.193-6.317c1.951 0 3.247 0.832 3.984 1.541l2.715-2.605c-1.748-1.636-3.999-2.619-6.7-2.619-5.525 0-10 4.475-10 10s4.475 10 10 10z"></path>
</symbol>
<symbol id="linkedin" viewBox="0 0 32 32">
<path d="M0 10h7.156v22h-7.156v-22z"></path>
<path d="M26.648 10.258c-0.076-0.024-0.148-0.050-0.228-0.072-0.096-0.022-0.192-0.040-0.29-0.056-0.38-0.076-0.796-0.13-1.284-0.13-4.172 0-6.818 3.034-7.69 4.206v-4.206h-7.156v22h7.156v-12c0 0 5.408-7.532 7.69-2 0 4.938 0 14 0 14h7.154v-14.846c0-3.324-2.278-6.094-5.352-6.896z"></path>
<path d="M7 3.5c0 1.933-1.567 3.5-3.5 3.5s-3.5-1.567-3.5-3.5c0-1.933 1.567-3.5 3.5-3.5s3.5 1.567 3.5 3.5z"></path>
</symbol>
</defs>
</svg>
